<svg xmlns="http://www.w3.org/2000/svg" xmlns:xlink="http://www.w3.org/1999/xlink" xmlns:lucid="lucid" width="1760" height="1008.72"><g transform="translate(0 0)" lucid:page-tab-id="0_0"><path d="M0 0h1870.87v1322.83H0z" fill="#fff"/><path d="M1040 420h233v40h-233z" fill="#c1e4f7"/><path d="M1040 460h191v40h-191zM1231 460h42v40h-42zM1040 500h191v40h-191z" fill="#fff"/><path d="M1231 500h42v40h-42z" fill="#19967d"/><path d="M1040 420v40M1273 420v40M1040 460v40M1231 460v40M1273 460v40M1040 500v40M1231 500v40M1273 500v40M1040 420h233M1040 460h191M1231 460h42M1040 500h191M1040 540h191M1231 500h42M1231 540h42" stroke="#5e5e5e" stroke-width="3" fill="none"/><use xlink:href="#a" transform="matrix(1,0,0,1,1045,425) translate(51.77777777777777 19.444444444444443)"/><use xlink:href="#b" transform="matrix(1,0,0,1,1045,465) translate(2.382716049382708 19.444444444444443)"/><use xlink:href="#c" transform="matrix(1,0,0,1,1045,465) translate(128 19.444444444444443)"/><use xlink:href="#d" transform="matrix(1,0,0,1,1045,505) translate(33.18518518518519 19.444444444444443)"/><use xlink:href="#e" transform="matrix(1,0,0,1,1045,505) translate(92.25925925925927 19.444444444444443)"/><use xlink:href="#f" transform="matrix(1,0,0,1,1236,505) translate(8.006172839506174 19.444444444444443)"/><path d="M20 260h174v40H20z" fill="#fcc438"/><path d="M20 300h124v40H20z" fill="#fff"/><path d="M144 300h50v40h-50z" fill="#19967d"/><path d="M20 340h124v40H20z" fill="#fff"/><path d="M144 340h50v40h-50z" fill="#0c7cba"/><path d="M20 380h124v40H20zM144 380h50v40h-50z" fill="#fff"/><path d="M20 260v40M194 260v40M20 300v40M144 300v40M194 300v40M20 340v40M144 340v40M194 340v40M20 380v40M144 380v40M194 380v40M20 260h174M20 300h124M144 300h50M20 340h124M144 340h50M20 380h124M20 420h124M144 380h50M144 420h50" stroke="#5e5e5e" stroke-width="3" fill="none"/><use xlink:href="#g" transform="matrix(1,0,0,1,25,265) translate(30.271604938271608 19.444444444444443)"/><use xlink:href="#h" transform="matrix(1,0,0,1,25,305) translate(23.141975308641975 19.444444444444443)"/><use xlink:href="#i" transform="matrix(1,0,0,1,25,305) translate(82.21604938271605 19.444444444444443)"/><use xlink:href="#h" transform="matrix(1,0,0,1,25,345) translate(23.141975308641975 19.444444444444443)"/><use xlink:href="#i" transform="matrix(1,0,0,1,25,345) translate(82.21604938271605 19.444444444444443)"/><use xlink:href="#j" transform="matrix(1,0,0,1,25,385) translate(47.74074074074074 19.444444444444443)"/><path d="M420 80h333v33.33H420z" fill="#19967d"/><path d="M420 113.33h288v33.34H420zM708 113.33h45v33.34h-45z" fill="#fff"/><path d="M420 146.67h288V180H420z" fill="#fff"/><path d="M708 146.67h45V180h-45z" fill="#c92d39"/><path d="M420 180h288v33.33H420z" fill="#fff"/><path d="M708 180h45v33.33h-45z" fill="#99d2f2"/><path d="M420 213.33h333v33.34H420z" fill="#fff"/><path d="M420 246.67h288V280H420zM708 246.67h45V280h-45zM420 280h333v33.33H420z" fill="#fff"/><path d="M420 80v33.33M753 80v33.33M420 113.33v33.34M708 113.33v33.34M753 113.33v33.34M420 146.67V180M708 146.67V180M753 146.67V180M420 180v33.33M708 180v33.33M753 180v33.33M420 213.33v33.34M753 213.33v33.34M420 246.67V280M708 246.67V280M753 246.67V280M420 280v33.33M753 280v33.33M420 80h333M420 113.33h288M708 113.33h45M420 146.67h288M708 146.67h45M420 180h288M708 180h45M420 213.33h333M420 246.67h288M708 246.67h45M420 280h333M420 313.33h333" stroke="#5e5e5e" stroke-width="3" fill="none"/><use xlink:href="#k" transform="matrix(1,0,0,1,425,85) translate(125.14197530864197 17.77777777777778)"/><use xlink:href="#l" transform="matrix(1,0,0,1,425,85) translate(181.87037037037038 17.77777777777778)"/><use xlink:href="#m" transform="matrix(1,0,0,1,425,118.33333333333334) translate(99.55555555555556 17.77777777777778)"/><use xlink:href="#n" transform="matrix(1,0,0,1,425,118.33333333333334) translate(152.58024691358025 17.77777777777778)"/><use xlink:href="#d" transform="matrix(1,0,0,1,425,151.66666666666669) translate(81.0679012345679 17.77777777777778)"/><use xlink:href="#o" transform="matrix(1,0,0,1,425,151.66666666666669) translate(140.14197530864197 17.77777777777778)"/><use xlink:href="#b" transform="matrix(1,0,0,1,425,185) translate(42.919753086419746 17.77777777777778)"/><use xlink:href="#p" transform="matrix(1,0,0,1,425,185) translate(168.53703703703704 17.77777777777778)"/><use xlink:href="#q" transform="matrix(1,0,0,1,425,218.33333333333334) translate(56.777777777777786 17.77777777777778)"/><use xlink:href="#r" transform="matrix(1,0,0,1,425,218.33333333333334) translate(109.67901234567901 17.77777777777778)"/><use xlink:href="#s" transform="matrix(1,0,0,1,425,251.66666666666669) translate(82.95061728395062 17.77777777777778)"/><use xlink:href="#t" transform="matrix(1,0,0,1,425,251.66666666666669) translate(134.679012345679 17.77777777777778)"/><use xlink:href="#u" transform="matrix(1,0,0,1,425,285) translate(94.98765432098764 17.77777777777778)"/><use xlink:href="#v" transform="matrix(1,0,0,1,425,285) translate(128.19753086419752 17.77777777777778)"/><path d="M755.5 162.67h407.75c3.3 0 6-2.7 6-6V102c0-3.3 2.7-6 6-6H1200" stroke="#c92d39" stroke-width="2" fill="none"/><path d="M755.53 163.67h-1.03v-2h1.03z" fill="#c92d39"/><path d="M1215.26 96l-14.26 4.64v-9.28z" stroke="#c92d39" stroke-width="2" fill="#c92d39"/><path d="M196.5 323H301c3.3 0 6-2.7 6-6V106c0-3.3 2.7-6 6-6h87" stroke="#19967d" stroke-width="2" fill="none"/><path d="M196.53 324h-1.03v-2h1.03z" fill="#19967d"/><path d="M415.26 100L401 104.64v-9.28z" stroke="#19967d" stroke-width="2" fill="#19967d"/><path d="M1220 80h333v33.33h-333z" fill="#c92d39"/><path d="M1220 113.33h288v33.34h-288zM1508 113.33h45v33.34h-45z" fill="#fff"/><path d="M1220 146.67h288V180h-288zM1508 146.67h45V180h-45zM1220 180h288v33.33h-288z" fill="#fff"/><path d="M1508 180h45v33.33h-45z" fill="#99d2f2"/><path d="M1220 213.33h333v33.34h-333z" fill="#fff"/><path d="M1220 246.67h288V280h-288zM1508 246.67h45V280h-45zM1220 280h333v33.33h-333z" fill="#fff"/><path d="M1220 80v33.33M1553 80v33.33M1220 113.33v33.34M1508 113.33v33.34M1553 113.33v33.34M1220 146.67V180M1508 146.67V180M1553 146.67V180M1220 180v33.33M1508 180v33.33M1553 180v33.33M1220 213.33v33.34M1553 213.33v33.34M1220 246.67V280M1508 246.67V280M1553 246.67V280M1220 280v33.33M1553 280v33.33M1220 80h333M1220 113.33h288M1508 113.33h45M1220 146.67h288M1508 146.67h45M1220 180h288M1508 180h45M1220 213.33h333M1220 246.67h288M1508 246.67h45M1220 280h333M1220 313.33h333" stroke="#5e5e5e" stroke-width="3" fill="none"/><use xlink:href="#k" transform="matrix(1,0,0,1,1225,85) translate(125.14197530864197 17.77777777777778)"/><use xlink:href="#w" transform="matrix(1,0,0,1,1225,85) translate(181.87037037037038 17.77777777777778)"/><use xlink:href="#m" transform="matrix(1,0,0,1,1225,118.33333333333334) translate(99.55555555555556 17.77777777777778)"/><use xlink:href="#n" transform="matrix(1,0,0,1,1225,118.33333333333334) translate(152.58024691358025 17.77777777777778)"/><use xlink:href="#d" transform="matrix(1,0,0,1,1225,151.66666666666669) translate(81.0679012345679 17.77777777777778)"/><use xlink:href="#o" transform="matrix(1,0,0,1,1225,151.66666666666669) translate(140.14197530864197 17.77777777777778)"/><use xlink:href="#b" transform="matrix(1,0,0,1,1225,185) translate(42.919753086419746 17.77777777777778)"/><use xlink:href="#p" transform="matrix(1,0,0,1,1225,185) translate(168.53703703703704 17.77777777777778)"/><use xlink:href="#q" transform="matrix(1,0,0,1,1225,218.33333333333334) translate(56.777777777777786 17.77777777777778)"/><use xlink:href="#r" transform="matrix(1,0,0,1,1225,218.33333333333334) translate(109.67901234567901 17.77777777777778)"/><use xlink:href="#s" transform="matrix(1,0,0,1,1225,251.66666666666669) translate(82.95061728395062 17.77777777777778)"/><use xlink:href="#t" transform="matrix(1,0,0,1,1225,251.66666666666669) translate(134.679012345679 17.77777777777778)"/><use xlink:href="#u" transform="matrix(1,0,0,1,1225,285) translate(94.98765432098764 17.77777777777778)"/><use xlink:href="#v" transform="matrix(1,0,0,1,1225,285) translate(128.19753086419752 17.77777777777778)"/><path d="M1275.5 518.67h33c3.3 0 6-2.7 6-6V359.33c0-3.3-2.7-6-6-6H574c-3.3 0-6-2.68-6-6v-14" stroke="#19967d" stroke-width="2" fill="none"/><path d="M1275.53 519.67h-1.03v-2h1.03z" fill="#19967d"/><path d="M568 318.07l4.64 14.27h-9.28z" stroke="#19967d" stroke-width="2" fill="#19967d"/><path d="M1260 612.38h233v40h-233z" fill="#c1e4f7"/><path d="M1260 652.38h191v40h-191zM1451 652.38h42v40h-42zM1260 692.38h191v40h-191z" fill="#fff"/><path d="M1451 692.38h42v40h-42z" fill="#c92d39"/><path d="M1260 612.38v40M1493 612.38v40M1260 652.38v40M1451 652.38v40M1493 652.38v40M1260 692.38v40M1451 692.38v40M1493 692.38v40M1260 612.38h233M1260 652.38h191M1451 652.38h42M1260 692.38h191M1260 732.38h191M1451 692.38h42M1451 732.38h42" stroke="#5e5e5e" stroke-width="3" fill="none"/><use xlink:href="#a" transform="matrix(1,0,0,1,1265,617.3753281347141) translate(51.77777777777777 19.444444444444443)"/><use xlink:href="#b" transform="matrix(1,0,0,1,1265,657.3753281347141) translate(2.382716049382708 19.444444444444443)"/><use xlink:href="#c" transform="matrix(1,0,0,1,1265,657.3753281347141) translate(128 19.444444444444443)"/><use xlink:href="#d" transform="matrix(1,0,0,1,1265,697.3753281347141) translate(33.18518518518519 19.444444444444443)"/><use xlink:href="#e" transform="matrix(1,0,0,1,1265,697.3753281347141) translate(92.25925925925927 19.444444444444443)"/><use xlink:href="#x" transform="matrix(1,0,0,1,1456,697.3753281347141) translate(8.006172839506174 19.444444444444443)"/><path d="M1495.5 714.96h33c3.3 0 6-2.7 6-6V360.83c0-3.3-2.7-6-6-6h-135.83c-3.32 0-6-2.68-6-6v-15.5" stroke="#c92d39" stroke-width="2" fill="none"/><path d="M1495.53 715.96h-1.03v-2h1.03z" fill="#c92d39"/><path d="M1386.67 318.07l4.63 14.27h-9.27z" stroke="#c92d39" stroke-width="2" fill="#c92d39"/><path d="M1275.5 480h103c3.3 0 6 2.7 6 6v106.37" stroke="#5e5e5e" stroke-width="2" fill="none"/><path d="M1275.53 481h-1.03v-2h1.03z" fill="#5e5e5e"/><path d="M1384.5 607.64l-4.64-14.27h9.28z" stroke="#5e5e5e" stroke-width="2" fill="#5e5e5e"/><path d="M755.5 196.67H1150c3.3 0 6 2.68 6 6V400" stroke="#0c7cba" stroke-width="2" fill="none"/><path d="M755.53 197.67h-1.03v-2h1.03z" fill="#0c7cba"/><path d="M1156 415.26l-4.64-14.26h9.28z" stroke="#0c7cba" stroke-width="2" fill="#0c7cba"/><path d="M1555.5 196.67h33c3.3 0 6 2.68 6 6v228.66c0 3.32-2.7 6-6 6H1293" stroke="#0c7cba" stroke-width="2" fill="none"/><path d="M1555.53 197.67h-1.03v-2h1.03z" fill="#0c7cba"/><path d="M1277.74 437.33l14.26-4.63v9.27z" stroke="#0c7cba" stroke-width="2" fill="#0c7cba"/><path d="M753 26c0-3.3 2.7-6 6-6h235c3.3 0 6 2.7 6 6v28c0 3.3-2.7 6-6 6H759c-3.3 0-6-2.7-6-6z" stroke="#5e5e5e" stroke-width="3" fill="#fff"/><use xlink:href="#y" transform="matrix(1,0,0,1,758,25) translate(2.975308641975346 19.65277777777778)"/><path d="M755.5 128h115c3.3 0 6-2.7 6-6V80" stroke="#5e5e5e" stroke-width="2" fill="none"/><path d="M755.53 129h-1.03v-2h1.03z" fill="#5e5e5e"/><path d="M876.5 64.74L881.14 79h-9.28z" stroke="#5e5e5e" stroke-width="2" fill="#5e5e5e"/><path d="M660 500h262.7v36.67H660z" fill="#19967d"/><path d="M660 536.67h215.56v37.96H660z" fill="#f9d2de"/><path d="M875.56 536.67h47.13v37.96h-47.14z" fill="#fff"/><path d="M660 574.63h215.56v37.96H660z" fill="#f9d2de"/><path d="M875.56 574.63h47.13v37.96h-47.14z" fill="#fff"/><path d="M660 612.6h262.7v37.96H660z" fill="#f9d2de"/><path d="M660 650.56h215.56v37.96H660z" fill="#c7e8ac"/><path d="M875.56 650.56h47.13v37.96h-47.14z" fill="#fff"/><path d="M660 688.52h215.56v37.97H660z" fill="#c7e8ac"/><path d="M875.56 688.52h47.13v37.97h-47.14z" fill="#fff"/><path d="M660 726.5h262.7v37.95H660z" fill="#c7e8ac"/><path d="M660 764.45h262.7v36.67H660z" fill="#fff"/><path d="M660 500v36.67M922.7 500v36.67M660 536.67v37.96M875.56 536.67v37.96M922.7 536.67v37.96M660 574.63v37.96M875.56 574.63v37.96M922.7 574.63v37.96M660 612.6v37.96M922.7 612.6v37.96M660 650.56v37.96M875.56 650.56v37.96M922.7 650.56v37.96M660 688.52v37.97M875.56 688.52v37.97M922.7 688.52v37.97M660 726.5v37.95M922.7 726.5v37.95M660 764.45v36.67M922.7 764.45v36.67M660 500h262.7M660 536.67h215.56M875.56 536.67h47.13M660 574.63h215.56M875.56 574.63h47.13M660 612.6h262.7M660 650.56h215.56M875.56 650.56h47.13M660 688.52h215.56M875.56 688.52h47.13M660 726.5h262.7M660 764.45h262.7M660 801.12h262.7" stroke="#5e5e5e" stroke-width="3" fill="none"/><use xlink:href="#z" transform="matrix(1,0,0,1,665,505) translate(4.030864197530903 17.944444444444443)"/><use xlink:href="#A" transform="matrix(1,0,0,1,665,505) translate(215.75925925925924 17.944444444444443)"/><use xlink:href="#B" transform="matrix(1,0,0,1,665,505) translate(229.27777777777771 17.944444444444443)"/><use xlink:href="#m" transform="matrix(1,0,0,1,665,541.6666666666666) translate(31.48765432098766 18.444444444444443)"/><use xlink:href="#C" transform="matrix(1,0,0,1,665,541.6666666666666) translate(84.51234567901236 18.444444444444443)"/><use xlink:href="#m" transform="matrix(1,0,0,1,665,579.6305106248018) translate(35.77777777777777 18.444444444444443)"/><use xlink:href="#D" transform="matrix(1,0,0,1,665,579.6305106248018) translate(88.80246913580245 18.444444444444443)"/><use xlink:href="#u" transform="matrix(1,0,0,1,665,617.594354582937) translate(95.08024691358025 18.444444444444443)"/><use xlink:href="#E" transform="matrix(1,0,0,1,665,617.594354582937) translate(128.29012345679013 18.444444444444443)"/><use xlink:href="#m" transform="matrix(1,0,0,1,665,655.558198541072) translate(31.48765432098766 18.444444444444443)"/><use xlink:href="#C" transform="matrix(1,0,0,1,665,655.558198541072) translate(84.51234567901236 18.444444444444443)"/><use xlink:href="#m" transform="matrix(1,0,0,1,665,693.5220424992071) translate(35.77777777777777 18.444444444444443)"/><use xlink:href="#D" transform="matrix(1,0,0,1,665,693.5220424992071) translate(88.80246913580245 18.444444444444443)"/><use xlink:href="#u" transform="matrix(1,0,0,1,665,731.4858864573423) translate(95.08024691358025 18.444444444444443)"/><use xlink:href="#E" transform="matrix(1,0,0,1,665,731.4858864573423) translate(128.29012345679013 18.444444444444443)"/><use xlink:href="#j" transform="matrix(1,0,0,1,665,769.4497304154773) translate(117.24074074074073 17.944444444444443)"/><path d="M1580 46c0-3.3 2.7-6 6-6h148c3.3 0 6 2.7 6 6v28c0 3.3-2.7 6-6 6h-148c-3.3 0-6-2.7-6-6z" stroke="#5e5e5e" stroke-width="3" fill="#fff"/><use xlink:href="#F" transform="matrix(1,0,0,1,1585,45) translate(9.96913580246914 19.65277777777778)"/><path d="M1555.5 129.33h98.5c3.3 0 6-2.68 6-6V100" stroke="#5e5e5e" stroke-width="2" fill="none"/><path d="M1555.53 130.33h-1.03v-2h1.03z" fill="#5e5e5e"/><path d="M1660 84.74l4.64 14.26h-9.28z" stroke="#5e5e5e" stroke-width="2" fill="#5e5e5e"/><path d="M755.5 262.67H864c3.3 0 6 2.68 6 6V434c0 3.3-2.7 6-6 6h-70.02c-3.32 0-6 2.7-6 6v34" stroke="#5e5e5e" stroke-width="2" fill="none"/><path d="M755.53 263.67h-1.03v-2h1.03z" fill="#5e5e5e"/><path d="M787.98 495.26L783.34 481h9.27z" stroke="#5e5e5e" stroke-width="2" fill="#5e5e5e"/><path d="M1060 686c0-3.3 2.7-6 6-6h128c3.3 0 6 2.7 6 6v28c0 3.3-2.7 6-6 6h-128c-3.3 0-6-2.7-6-6z" stroke="#5e5e5e" stroke-width="3" fill="#fff"/><use xlink:href="#G" transform="matrix(1,0,0,1,1065,685) translate(41.111111111111114 19.65277777777778)"/><path d="M925.2 558.68h60.15c3.3 0 6 2.68 6 6v128c0 3.3 2.68 6 6 6H1040" stroke="#5e5e5e" stroke-width="2" fill="none"/><path d="M925.22 559.68h-1.03v-2h1.02z" fill="#5e5e5e"/><path d="M1055.26 698.67L1041 703.3v-9.27z" stroke="#5e5e5e" stroke-width="2" fill="#5e5e5e"/><path d="M860 825.88h219.14v40.7H860z" fill="#f9d2de"/><path d="M860 866.6h159.14v40.7H860z" fill="#fff"/><path d="M1019.14 866.6h60v40.7h-60z" fill="#fff"/><path d="M860 907.3h159.14V948H860z" fill="#fff"/><path d="M1019.14 907.3h60V948h-60zM860 948h159.14v40.72H860z" fill="#fff"/><path d="M1019.14 948h60v40.72h-60z" fill="#fff"/><path d="M860 825.88v40.7M1079.14 825.88v40.7M860 866.6v40.7M1019.14 866.6v40.7M1079.14 866.6v40.7M860 907.3V948M1019.14 907.3V948M1079.14 907.3V948M860 948v40.72M1019.14 948v40.72M1079.14 948v40.72M860 825.88h219.14M860 866.6h159.14M1019.14 866.6h60M860 907.3h159.14M1019.14 907.3h60M860 948h159.14M860 988.72h159.14M1019.14 948h60M1019.14 988.72h60" stroke="#5e5e5e" stroke-width="3" fill="none"/><use xlink:href="#H" transform="matrix(1,0,0,1,865,830.8821190902624) translate(10.740740740740748 19.944444444444443)"/><use xlink:href="#I" transform="matrix(1,0,0,1,865,830.8821190902624) translate(166.04938271604937 19.944444444444443)"/><use xlink:href="#J" transform="matrix(1,0,0,1,865,830.8821190902624) translate(179.5679012345679 19.944444444444443)"/><use xlink:href="#K" transform="matrix(1,0,0,1,865,871.5907805075852) translate(44.16666666666667 19.944444444444443)"/><use xlink:href="#i" transform="matrix(1,0,0,1,865,871.5907805075852) translate(97.19135802469137 19.944444444444443)"/><use xlink:href="#K" transform="matrix(1,0,0,1,865,912.299441924908) translate(44.16666666666667 19.944444444444443)"/><use xlink:href="#i" transform="matrix(1,0,0,1,865,912.299441924908) translate(97.19135802469137 19.944444444444443)"/><use xlink:href="#j" transform="matrix(1,0,0,1,865,953.0081033422308) translate(65.74074074074073 19.944444444444443)"/><path d="M925.2 594.67h41.28c3.32 0 6 2.68 6 6v205.2" stroke="#5e5e5e" stroke-width="2" fill="none"/><path d="M925.22 595.67h-1.03v-2h1.02z" fill="#5e5e5e"/><path d="M972.48 821.15l-4.63-14.27h9.27z" stroke="#5e5e5e" stroke-width="2" fill="#5e5e5e"/><path d="M1120 866c0-3.3 2.7-6 6-6h128c3.3 0 6 2.7 6 6v28c0 3.3-2.7 6-6 6h-128c-3.3 0-6-2.7-6-6z" stroke="#5e5e5e" stroke-width="3" fill="#fff"/><use xlink:href="#L" transform="matrix(1,0,0,1,1125,865) translate(12.191358024691354 19.65277777777778)"/><path d="M1120 916.2c0-3.33 2.7-6 6-6h128c3.3 0 6 2.67 6 6v28c0 3.3-2.7 6-6 6h-128c-3.3 0-6-2.7-6-6z" stroke="#5e5e5e" stroke-width="3" fill="#fff"/><use xlink:href="#M" transform="matrix(1,0,0,1,1125,915.1878237891799) translate(30.648148148148152 19.65277777777778)"/><path d="M1081.64 880H1100" stroke="#5e5e5e" stroke-width="2" fill="none"/><path d="M1081.66 881h-1.02v-2h1.02z" fill="#5e5e5e"/><path d="M1115.26 880l-14.26 4.64v-9.28z" stroke="#5e5e5e" stroke-width="2" fill="#5e5e5e"/><path d="M1081.64 930.2H1100" stroke="#5e5e5e" stroke-width="2" fill="none"/><path d="M1081.66 931.2h-1.02v-2h1.02z" fill="#5e5e5e"/><path d="M1115.26 930.2L1101 934.8v-9.27z" stroke="#5e5e5e" stroke-width="2" fill="#5e5e5e"/><path d="M180 520h333v33.33H180z" fill="#0c7cba"/><path d="M180 553.33h288v33.34H180zM468 553.33h45v33.34h-45z" fill="#fff"/><path d="M180 586.67h288V620H180zM468 586.67h45V620h-45zM180 620h288v33.33H180zM468 620h45v33.33h-45zM180 653.33h333v33.34H180z" fill="#fff"/><path d="M180 686.67h288V720H180zM468 686.67h45V720h-45zM180 720h333v33.33H180z" fill="#fff"/><path d="M180 520v33.33M513 520v33.33M180 553.33v33.34M468 553.33v33.34M513 553.33v33.34M180 586.67V620M468 586.67V620M513 586.67V620M180 620v33.33M468 620v33.33M513 620v33.33M180 653.33v33.34M513 653.33v33.34M180 686.67V720M468 686.67V720M513 686.67V720M180 720v33.33M513 720v33.33M180 520h333M180 553.33h288M468 553.33h45M180 586.67h288M468 586.67h45M180 620h288M468 620h45M180 653.33h333M180 686.67h288M468 686.67h45M180 720h333M180 753.33h333" stroke="#5e5e5e" stroke-width="3" fill="none"/><g><use xlink:href="#k" transform="matrix(1,0,0,1,185,525) translate(125.14197530864197 17.77777777777778)"/><use xlink:href="#N" transform="matrix(1,0,0,1,185,525) translate(181.87037037037038 17.77777777777778)"/></g><g><use xlink:href="#m" transform="matrix(1,0,0,1,185,558.3333333333334) translate(99.55555555555556 17.77777777777778)"/><use xlink:href="#n" transform="matrix(1,0,0,1,185,558.3333333333334) translate(152.58024691358025 17.77777777777778)"/></g><g><use xlink:href="#d" transform="matrix(1,0,0,1,185,591.6666666666666) translate(81.0679012345679 17.77777777777778)"/><use xlink:href="#o" transform="matrix(1,0,0,1,185,591.6666666666666) translate(140.14197530864197 17.77777777777778)"/></g><g><use xlink:href="#b" transform="matrix(1,0,0,1,185,625) translate(42.919753086419746 17.77777777777778)"/><use xlink:href="#p" transform="matrix(1,0,0,1,185,625) translate(168.53703703703704 17.77777777777778)"/></g><g><use xlink:href="#q" transform="matrix(1,0,0,1,185,658.3333333333334) translate(56.777777777777786 17.77777777777778)"/><use xlink:href="#r" transform="matrix(1,0,0,1,185,658.3333333333334) translate(109.67901234567901 17.77777777777778)"/></g><g><use xlink:href="#s" transform="matrix(1,0,0,1,185,691.6666666666667) translate(82.95061728395062 17.77777777777778)"/><use xlink:href="#t" transform="matrix(1,0,0,1,185,691.6666666666667) translate(134.679012345679 17.77777777777778)"/></g><g><use xlink:href="#u" transform="matrix(1,0,0,1,185,725) translate(94.98765432098764 17.77777777777778)"/><use xlink:href="#v" transform="matrix(1,0,0,1,185,725) translate(128.19753086419752 17.77777777777778)"/></g><path d="M196.5 357.33h143.33c3.32 0 6 2.7 6 6V500" stroke="#0c7cba" stroke-width="2" fill="none"/><path d="M196.53 358.33h-1.03v-2h1.03z" fill="#0c7cba"/><path d="M345.83 515.26L341.2 501h9.27z" stroke="#0c7cba" stroke-width="2" fill="#0c7cba"/><defs><path d="M190-63c-7 42-38 67-86 67-59 0-84-38-90-98-12-110 154-137 174-36l-49 2c-2-19-15-32-35-32-30 0-35 28-38 64-6 74 65 87 74 30" id="O"/><path d="M25 0v-261h50V0H25" id="P"/><path d="M25-224v-37h50v37H25zM25 0v-190h50V0H25" id="Q"/><path d="M84 4C32 4 15-41 15-95c0-55 18-99 73-99 29 0 47 12 58 34l2-30h48l-1 265h-49V-32C136-9 114 4 84 4zm21-34c32 0 41-29 41-66 0-36-9-64-40-64-33 0-39 30-40 65 0 43 13 65 39 65" id="R"/><path d="M85 4C-2 5 27-109 22-190h50c7 57-23 150 33 157 60-5 35-97 40-157h50l1 190h-47c-2-12 1-28-3-38-12 25-28 42-61 42" id="S"/><path d="M185-48c-13 30-37 53-82 52C43 2 14-33 14-96s30-98 90-98c62 0 83 45 84 108H66c0 31 8 55 39 56 18 0 30-7 34-22zm-45-69c5-46-57-63-70-21-2 6-4 13-4 21h74" id="T"/><path d="M175 0L67-191c6 58 2 128 3 191H24v-248h59L193-55c-6-58-2-129-3-193h46V0h-61" id="U"/><path d="M110-194c64 0 96 36 96 99 0 64-35 99-97 99-61 0-95-36-95-99 0-62 34-99 96-99zm-1 164c35 0 45-28 45-65 0-40-10-65-43-65-34 0-45 26-45 65 0 36 10 65 43 65" id="V"/><path d="M88-194c31-1 46 15 58 34l-1-101h50l1 261h-48c-2-10 0-23-3-31C134-8 116 4 84 4 32 4 16-41 15-95c0-56 19-97 73-99zm17 164c33 0 40-30 41-66 1-37-9-64-41-64s-38 30-39 65c0 43 13 65 39 65" id="W"/><g id="a"><use transform="matrix(0.06172839506172839,0,0,0.06172839506172839,0,0)" xlink:href="#O"/><use transform="matrix(0.06172839506172839,0,0,0.06172839506172839,12.345679012345679,0)" xlink:href="#P"/><use transform="matrix(0.06172839506172839,0,0,0.06172839506172839,18.51851851851852,0)" xlink:href="#Q"/><use transform="matrix(0.06172839506172839,0,0,0.06172839506172839,24.691358024691358,0)" xlink:href="#R"/><use transform="matrix(0.06172839506172839,0,0,0.06172839506172839,38.20987654320987,0)" xlink:href="#S"/><use transform="matrix(0.06172839506172839,0,0,0.06172839506172839,51.72839506172839,0)" xlink:href="#T"/><use transform="matrix(0.06172839506172839,0,0,0.06172839506172839,64.07407407407408,0)" xlink:href="#U"/><use transform="matrix(0.06172839506172839,0,0,0.06172839506172839,80.06172839506173,0)" xlink:href="#V"/><use transform="matrix(0.06172839506172839,0,0,0.06172839506172839,93.58024691358025,0)" xlink:href="#W"/><use transform="matrix(0.06172839506172839,0,0,0.06172839506172839,107.09876543209877,0)" xlink:href="#T"/></g><path fill="#0c7cba" d="M190-63c-7 42-38 67-86 67-59 0-84-38-90-98-12-110 154-137 174-36l-49 2c-2-19-15-32-35-32-30 0-35 28-38 64-6 74 65 87 74 30" id="X"/><path fill="#0c7cba" d="M25 0v-261h50V0H25" id="Y"/><path fill="#0c7cba" d="M25-224v-37h50v37H25zM25 0v-190h50V0H25" id="Z"/><path fill="#0c7cba" d="M84 4C32 4 15-41 15-95c0-55 18-99 73-99 29 0 47 12 58 34l2-30h48l-1 265h-49V-32C136-9 114 4 84 4zm21-34c32 0 41-29 41-66 0-36-9-64-40-64-33 0-39 30-40 65 0 43 13 65 39 65" id="aa"/><path fill="#0c7cba" d="M85 4C-2 5 27-109 22-190h50c7 57-23 150 33 157 60-5 35-97 40-157h50l1 190h-47c-2-12 1-28-3-38-12 25-28 42-61 42" id="ab"/><path fill="#0c7cba" d="M185-48c-13 30-37 53-82 52C43 2 14-33 14-96s30-98 90-98c62 0 83 45 84 108H66c0 31 8 55 39 56 18 0 30-7 34-22zm-45-69c5-46-57-63-70-21-2 6-4 13-4 21h74" id="ac"/><path fill="#0c7cba" d="M175 0L67-191c6 58 2 128 3 191H24v-248h59L193-55c-6-58-2-129-3-193h46V0h-61" id="ad"/><path fill="#0c7cba" d="M110-194c64 0 96 36 96 99 0 64-35 99-97 99-61 0-95-36-95-99 0-62 34-99 96-99zm-1 164c35 0 45-28 45-65 0-40-10-65-43-65-34 0-45 26-45 65 0 36 10 65 43 65" id="ae"/><path fill="#0c7cba" d="M88-194c31-1 46 15 58 34l-1-101h50l1 261h-48c-2-10 0-23-3-31C134-8 116 4 84 4 32 4 16-41 15-95c0-56 19-97 73-99zm17 164c33 0 40-30 41-66 1-37-9-64-41-64s-38 30-39 65c0 43 13 65 39 65" id="af"/><g id="b"><use transform="matrix(0.06172839506172839,0,0,0.06172839506172839,0,0)" xlink:href="#X"/><use transform="matrix(0.06172839506172839,0,0,0.06172839506172839,12.345679012345679,0)" xlink:href="#Y"/><use transform="matrix(0.06172839506172839,0,0,0.06172839506172839,18.51851851851852,0)" xlink:href="#Z"/><use transform="matrix(0.06172839506172839,0,0,0.06172839506172839,24.691358024691358,0)" xlink:href="#aa"/><use transform="matrix(0.06172839506172839,0,0,0.06172839506172839,38.20987654320987,0)" xlink:href="#ab"/><use transform="matrix(0.06172839506172839,0,0,0.06172839506172839,51.72839506172839,0)" xlink:href="#ac"/><use transform="matrix(0.06172839506172839,0,0,0.06172839506172839,64.07407407407408,0)" xlink:href="#ad"/><use transform="matrix(0.06172839506172839,0,0,0.06172839506172839,80.06172839506173,0)" xlink:href="#ae"/><use transform="matrix(0.06172839506172839,0,0,0.06172839506172839,93.58024691358025,0)" xlink:href="#af"/><use transform="matrix(0.06172839506172839,0,0,0.06172839506172839,107.09876543209877,0)" xlink:href="#ac"/></g><path d="M80-196l47-18 7 23-49 13 32 44-20 13-27-46-27 45-21-12 33-44-49-13 8-23 47 19-2-53h23" id="ag"/><path d="M117-194c89-4 53 116 60 194h-32v-121c0-31-8-49-39-48C34-167 62-67 57 0H25l-1-190h30c1 10-1 24 2 32 11-22 29-35 61-36" id="ah"/><path d="M100-194c63 0 86 42 84 106H49c0 40 14 67 53 68 26 1 43-12 49-29l28 8c-11 28-37 45-77 45C44 4 14-33 15-96c1-61 26-98 85-98zm52 81c6-60-76-77-97-28-3 7-6 17-6 28h103" id="ai"/><path d="M141 0L90-78 38 0H4l68-98-65-92h35l48 74 47-74h35l-64 92 68 98h-35" id="aj"/><path d="M59-47c-2 24 18 29 38 22v24C64 9 27 4 27-40v-127H5v-23h24l9-43h21v43h35v23H59v120" id="ak"/><g id="c"><use transform="matrix(0.06172839506172839,0,0,0.06172839506172839,0,0)" xlink:href="#ag"/><use transform="matrix(0.06172839506172839,0,0,0.06172839506172839,8.641975308641975,0)" xlink:href="#ah"/><use transform="matrix(0.06172839506172839,0,0,0.06172839506172839,20.98765432098765,0)" xlink:href="#ai"/><use transform="matrix(0.06172839506172839,0,0,0.06172839506172839,33.33333333333333,0)" xlink:href="#aj"/><use transform="matrix(0.06172839506172839,0,0,0.06172839506172839,44.44444444444444,0)" xlink:href="#ak"/></g><path fill="#0c7cba" d="M135-194c87-1 58 113 63 194h-50c-7-57 23-157-34-157-59 0-34 97-39 157H25l-1-190h47c2 12-1 28 3 38 12-26 28-41 61-42" id="al"/><g id="d"><use transform="matrix(0.06172839506172839,0,0,0.06172839506172839,0,0)" xlink:href="#al"/><use transform="matrix(0.06172839506172839,0,0,0.06172839506172839,13.518518518518517,0)" xlink:href="#ae"/><use transform="matrix(0.06172839506172839,0,0,0.06172839506172839,27.037037037037035,0)" xlink:href="#af"/><use transform="matrix(0.06172839506172839,0,0,0.06172839506172839,40.55555555555555,0)" xlink:href="#ac"/></g><path d="M135-143c-3-34-86-38-87 0 15 53 115 12 119 90S17 21 10-45l28-5c4 36 97 45 98 0-10-56-113-15-118-90-4-57 82-63 122-42 12 7 21 19 24 35" id="am"/><path d="M115-194c55 1 70 41 70 98S169 2 115 4C84 4 66-9 55-30l1 105H24l-1-265h31l2 30c10-21 28-34 59-34zm-8 174c40 0 45-34 45-75s-6-73-45-74c-42 0-51 32-51 76 0 43 10 73 51 73" id="an"/><path d="M96-169c-40 0-48 33-48 73s9 75 48 75c24 0 41-14 43-38l32 2c-6 37-31 61-74 61-59 0-76-41-82-99-10-93 101-131 147-64 4 7 5 14 7 22l-32 3c-4-21-16-35-41-35" id="ao"/><g id="e"><use transform="matrix(0.06172839506172839,0,0,0.06172839506172839,0,0)" xlink:href="#ag"/><use transform="matrix(0.06172839506172839,0,0,0.06172839506172839,8.641975308641975,0)" xlink:href="#am"/><use transform="matrix(0.06172839506172839,0,0,0.06172839506172839,19.753086419753085,0)" xlink:href="#an"/><use transform="matrix(0.06172839506172839,0,0,0.06172839506172839,32.098765432098766,0)" xlink:href="#ai"/><use transform="matrix(0.06172839506172839,0,0,0.06172839506172839,44.44444444444444,0)" xlink:href="#ao"/></g><path fill="#fff" d="M199 0l-22-63H83L61 0H9l90-248h61L250 0h-51zm-33-102l-36-108c-10 38-24 72-36 108h72" id="ap"/><use transform="matrix(0.06172839506172839,0,0,0.06172839506172839,0,0)" xlink:href="#ap" id="f"/><path d="M114-157C55-157 80-60 75 0H25v-261h50l-1 109c12-26 28-41 61-42 86-1 58 113 63 194h-50c-7-57 23-157-34-157" id="aq"/><path d="M133-34C117-15 103 5 69 4 32 3 11-16 11-54c-1-60 55-63 116-61 1-26-3-47-28-47-18 1-26 9-28 27l-52-2c7-38 36-58 82-57s74 22 75 68l1 82c-1 14 12 18 25 15v27c-30 8-71 5-69-32zm-48 3c29 0 43-24 42-57-32 0-66-3-65 30 0 17 8 27 23 27" id="ar"/><path d="M137-138c1-29-70-34-71-4 15 46 118 7 119 86 1 83-164 76-172 9l43-7c4 19 20 25 44 25 33 8 57-30 24-41C81-84 22-81 20-136c-2-80 154-74 161-7" id="as"/><path d="M115-3C79 11 28 4 28-45v-112H4v-33h27l15-45h31v45h36v33H77v99c-1 23 16 31 38 25v30" id="at"/><path d="M135-194c52 0 70 43 70 98 0 56-19 99-73 100-30 1-46-15-58-35L72 0H24l1-261h50v104c11-23 29-37 60-37zM114-30c31 0 40-27 40-66 0-37-7-63-39-63s-41 28-41 65c0 36 8 64 40 64" id="au"/><g id="g"><use transform="matrix(0.06172839506172839,0,0,0.06172839506172839,0,0)" xlink:href="#aq"/><use transform="matrix(0.06172839506172839,0,0,0.06172839506172839,13.518518518518517,0)" xlink:href="#ar"/><use transform="matrix(0.06172839506172839,0,0,0.06172839506172839,25.864197530864196,0)" xlink:href="#as"/><use transform="matrix(0.06172839506172839,0,0,0.06172839506172839,38.20987654320987,0)" xlink:href="#aq"/><use transform="matrix(0.06172839506172839,0,0,0.06172839506172839,51.72839506172839,0)" xlink:href="#at"/><use transform="matrix(0.06172839506172839,0,0,0.06172839506172839,59.07407407407407,0)" xlink:href="#ar"/><use transform="matrix(0.06172839506172839,0,0,0.06172839506172839,71.41975308641975,0)" xlink:href="#au"/><use transform="matrix(0.06172839506172839,0,0,0.06172839506172839,84.93827160493827,0)" xlink:href="#P"/><use transform="matrix(0.06172839506172839,0,0,0.06172839506172839,91.1111111111111,0)" xlink:href="#T"/></g><g id="h"><use transform="matrix(0.06172839506172839,0,0,0.06172839506172839,0,0)" xlink:href="#al"/><use transform="matrix(0.06172839506172839,0,0,0.06172839506172839,13.518518518518517,0)" xlink:href="#ae"/><use transform="matrix(0.06172839506172839,0,0,0.06172839506172839,27.037037037037035,0)" xlink:href="#af"/><use transform="matrix(0.06172839506172839,0,0,0.06172839506172839,40.55555555555555,0)" xlink:href="#ac"/></g><path fill="#0c7cba" d="M86-200l42-18 12 35-44 11 32 37-32 21-26-44-26 44-32-21 33-37-44-11 12-35 42 18-3-48h38" id="av"/><use transform="matrix(0.06172839506172839,0,0,0.06172839506172839,0,0)" xlink:href="#av" id="i"/><path d="M33 0v-38h34V0H33" id="aw"/><g id="j"><use transform="matrix(0.06172839506172839,0,0,0.06172839506172839,0,0)" xlink:href="#aw"/><use transform="matrix(0.06172839506172839,0,0,0.06172839506172839,6.172839506172839,0)" xlink:href="#aw"/><use transform="matrix(0.06172839506172839,0,0,0.06172839506172839,12.345679012345679,0)" xlink:href="#aw"/></g><path fill="#fff" d="M137-138c1-29-70-34-71-4 15 46 118 7 119 86 1 83-164 76-172 9l43-7c4 19 20 25 44 25 33 8 57-30 24-41C81-84 22-81 20-136c-2-80 154-74 161-7" id="ax"/><path fill="#fff" d="M135-194c53 0 70 44 70 98 0 56-19 98-73 100-31 1-45-17-59-34 3 33 2 69 2 105H25l-1-265h48c2 10 0 23 3 31 11-24 29-35 60-35zM114-30c33 0 39-31 40-66 0-38-9-64-40-64-56 0-55 130 0 130" id="ay"/><path fill="#fff" d="M185-48c-13 30-37 53-82 52C43 2 14-33 14-96s30-98 90-98c62 0 83 45 84 108H66c0 31 8 55 39 56 18 0 30-7 34-22zm-45-69c5-46-57-63-70-21-2 6-4 13-4 21h74" id="az"/><path fill="#fff" d="M190-63c-7 42-38 67-86 67-59 0-84-38-90-98-12-110 154-137 174-36l-49 2c-2-19-15-32-35-32-30 0-35 28-38 64-6 74 65 87 74 30" id="aA"/><g id="k"><use transform="matrix(0.06172839506172839,0,0,0.06172839506172839,0,0)" xlink:href="#ax"/><use transform="matrix(0.06172839506172839,0,0,0.06172839506172839,12.345679012345679,0)" xlink:href="#ay"/><use transform="matrix(0.06172839506172839,0,0,0.06172839506172839,25.864197530864196,0)" xlink:href="#az"/><use transform="matrix(0.06172839506172839,0,0,0.06172839506172839,38.20987654320987,0)" xlink:href="#aA"/></g><path fill="#fff" d="M199 0l-22-63H83L61 0H9l90-248h61L250 0h-51zm-33-102l-36-108c-10 38-24 72-36 108h72" id="aB"/><use transform="matrix(0.06172839506172839,0,0,0.06172839506172839,0,0)" xlink:href="#aB" id="l"/><path fill="#0c7cba" d="M114-157C55-157 80-60 75 0H25v-261h50l-1 109c12-26 28-41 61-42 86-1 58 113 63 194h-50c-7-57 23-157-34-157" id="aC"/><path fill="#0c7cba" d="M133-34C117-15 103 5 69 4 32 3 11-16 11-54c-1-60 55-63 116-61 1-26-3-47-28-47-18 1-26 9-28 27l-52-2c7-38 36-58 82-57s74 22 75 68l1 82c-1 14 12 18 25 15v27c-30 8-71 5-69-32zm-48 3c29 0 43-24 42-57-32 0-66-3-65 30 0 17 8 27 23 27" id="aD"/><path fill="#0c7cba" d="M135-150c-39-12-60 13-60 57V0H25l-1-190h47c2 13-1 29 3 40 6-28 27-53 61-41v41" id="aE"/><g id="m"><use transform="matrix(0.06172839506172839,0,0,0.06172839506172839,0,0)" xlink:href="#X"/><use transform="matrix(0.06172839506172839,0,0,0.06172839506172839,12.345679012345679,0)" xlink:href="#aC"/><use transform="matrix(0.06172839506172839,0,0,0.06172839506172839,25.864197530864196,0)" xlink:href="#aD"/><use transform="matrix(0.06172839506172839,0,0,0.06172839506172839,38.20987654320987,0)" xlink:href="#aE"/></g><path d="M24-231v-30h32v30H24zM24 0v-190h32V0H24" id="aF"/><path d="M85-194c31 0 48 13 60 33l-1-100h32l1 261h-30c-2-10 0-23-3-31C134-8 116 4 85 4 32 4 16-35 15-94c0-66 23-100 70-100zm9 24c-40 0-46 34-46 75 0 40 6 74 45 74 42 0 51-32 51-76 0-42-9-74-50-73" id="aG"/><g id="n"><use transform="matrix(0.06172839506172839,0,0,0.06172839506172839,0,0)" xlink:href="#ag"/><use transform="matrix(0.06172839506172839,0,0,0.06172839506172839,8.641975308641975,0)" xlink:href="#aF"/><use transform="matrix(0.06172839506172839,0,0,0.06172839506172839,13.518518518518517,0)" xlink:href="#aG"/></g><path d="M68-36c1 33-1 63-14 82H32c9-13 17-26 17-46H33v-36h35zM33-154v-36h35v36H33" id="aH"/><g id="o"><use transform="matrix(0.06172839506172839,0,0,0.06172839506172839,0,0)" xlink:href="#ag"/><use transform="matrix(0.06172839506172839,0,0,0.06172839506172839,8.641975308641975,0)" xlink:href="#ah"/><use transform="matrix(0.06172839506172839,0,0,0.06172839506172839,20.98765432098765,0)" xlink:href="#ai"/><use transform="matrix(0.06172839506172839,0,0,0.06172839506172839,33.33333333333333,0)" xlink:href="#aj"/><use transform="matrix(0.06172839506172839,0,0,0.06172839506172839,44.44444444444444,0)" xlink:href="#ak"/><use transform="matrix(0.06172839506172839,0,0,0.06172839506172839,50.617283950617285,0)" xlink:href="#aH"/></g><path d="M24 0v-261h32V0H24" id="aI"/><path d="M145-31C134-9 116 4 85 4 32 4 16-35 15-94c0-59 17-99 70-100 32-1 48 14 60 33 0-11-1-24 2-32h30l-1 268h-32zM93-21c41 0 51-33 51-76s-8-73-50-73c-40 0-46 35-46 75s5 74 45 74" id="aJ"/><path d="M84 4C-5 8 30-112 23-190h32v120c0 31 7 50 39 49 72-2 45-101 50-169h31l1 190h-30c-1-10 1-25-2-33-11 22-28 36-60 37" id="aK"/><g id="p"><use transform="matrix(0.06172839506172839,0,0,0.06172839506172839,0,0)" xlink:href="#ag"/><use transform="matrix(0.06172839506172839,0,0,0.06172839506172839,8.641975308641975,0)" xlink:href="#ao"/><use transform="matrix(0.06172839506172839,0,0,0.06172839506172839,19.753086419753085,0)" xlink:href="#aI"/><use transform="matrix(0.06172839506172839,0,0,0.06172839506172839,24.629629629629626,0)" xlink:href="#aF"/><use transform="matrix(0.06172839506172839,0,0,0.06172839506172839,29.50617283950617,0)" xlink:href="#aJ"/><use transform="matrix(0.06172839506172839,0,0,0.06172839506172839,41.85185185185185,0)" xlink:href="#aK"/><use transform="matrix(0.06172839506172839,0,0,0.06172839506172839,54.197530864197525,0)" xlink:href="#ai"/></g><path fill="#0c7cba" d="M135-194c52 0 70 43 70 98 0 56-19 99-73 100-30 1-46-15-58-35L72 0H24l1-261h50v104c11-23 29-37 60-37zM114-30c31 0 40-27 40-66 0-37-7-63-39-63s-41 28-41 65c0 36 8 64 40 64" id="aL"/><g id="q"><use transform="matrix(0.06172839506172839,0,0,0.06172839506172839,0,0)" xlink:href="#aL"/><use transform="matrix(0.06172839506172839,0,0,0.06172839506172839,13.518518518518517,0)" xlink:href="#ae"/><use transform="matrix(0.06172839506172839,0,0,0.06172839506172839,27.037037037037035,0)" xlink:href="#ae"/><use transform="matrix(0.06172839506172839,0,0,0.06172839506172839,40.55555555555555,0)" xlink:href="#Y"/></g><path d="M106-169C34-169 62-67 57 0H25v-261h32l-1 103c12-21 28-36 61-36 89 0 53 116 60 194h-32v-121c2-32-8-49-39-48" id="aM"/><path d="M141-36C126-15 110 5 73 4 37 3 15-17 15-53c-1-64 63-63 125-63 3-35-9-54-41-54-24 1-41 7-42 31l-33-3c5-37 33-52 76-52 45 0 72 20 72 64v82c-1 20 7 32 28 27v20c-31 9-61-2-59-35zM48-53c0 20 12 33 32 33 41-3 63-29 60-74-43 2-92-5-92 41" id="aN"/><path d="M30 0v-248h33v221h125V0H30" id="aO"/><path d="M140-251c81 0 123 46 123 126C263-46 219 4 140 4 59 4 17-45 17-125s42-126 123-126zm0 227c63 0 89-41 89-101s-29-99-89-99c-61 0-89 39-89 99S79-25 140-24" id="aP"/><path d="M101-234c-31-9-42 10-38 44h38v23H63V0H32v-167H5v-23h27c-7-52 17-82 69-68v24" id="aQ"/><path d="M212-179c-10-28-35-45-73-45-59 0-87 40-87 99 0 60 29 101 89 101 43 0 62-24 78-52l27 14C228-24 195 4 139 4 59 4 22-46 18-125c-6-104 99-153 187-111 19 9 31 26 39 46" id="aR"/><g id="r"><use transform="matrix(0.06172839506172839,0,0,0.06172839506172839,0,0)" xlink:href="#aM"/><use transform="matrix(0.06172839506172839,0,0,0.06172839506172839,12.345679012345679,0)" xlink:href="#aN"/><use transform="matrix(0.06172839506172839,0,0,0.06172839506172839,24.691358024691358,0)" xlink:href="#am"/><use transform="matrix(0.06172839506172839,0,0,0.06172839506172839,35.80246913580247,0)" xlink:href="#aO"/><use transform="matrix(0.06172839506172839,0,0,0.06172839506172839,48.148148148148145,0)" xlink:href="#aF"/><use transform="matrix(0.06172839506172839,0,0,0.06172839506172839,53.02469135802469,0)" xlink:href="#am"/><use transform="matrix(0.06172839506172839,0,0,0.06172839506172839,64.1358024691358,0)" xlink:href="#ak"/><use transform="matrix(0.06172839506172839,0,0,0.06172839506172839,70.30864197530863,0)" xlink:href="#aP"/><use transform="matrix(0.06172839506172839,0,0,0.06172839506172839,87.59259259259258,0)" xlink:href="#aQ"/><use transform="matrix(0.06172839506172839,0,0,0.06172839506172839,93.76543209876542,0)" xlink:href="#aR"/><use transform="matrix(0.06172839506172839,0,0,0.06172839506172839,109.75308641975307,0)" xlink:href="#aI"/><use transform="matrix(0.06172839506172839,0,0,0.06172839506172839,114.62962962962962,0)" xlink:href="#aF"/><use transform="matrix(0.06172839506172839,0,0,0.06172839506172839,119.50617283950616,0)" xlink:href="#aJ"/><use transform="matrix(0.06172839506172839,0,0,0.06172839506172839,131.85185185185185,0)" xlink:href="#aK"/><use transform="matrix(0.06172839506172839,0,0,0.06172839506172839,144.19753086419752,0)" xlink:href="#ai"/></g><path fill="#0c7cba" d="M121-226c-27-7-43 5-38 36h38v33H83V0H34v-157H6v-33h28c-9-59 32-81 87-68v32" id="aS"/><g id="s"><use transform="matrix(0.06172839506172839,0,0,0.06172839506172839,0,0)" xlink:href="#aS"/><use transform="matrix(0.06172839506172839,0,0,0.06172839506172839,7.345679012345679,0)" xlink:href="#Z"/><use transform="matrix(0.06172839506172839,0,0,0.06172839506172839,13.518518518518519,0)" xlink:href="#ac"/><use transform="matrix(0.06172839506172839,0,0,0.06172839506172839,25.864197530864196,0)" xlink:href="#Y"/><use transform="matrix(0.06172839506172839,0,0,0.06172839506172839,32.03703703703704,0)" xlink:href="#af"/></g><g id="t"><use transform="matrix(0.06172839506172839,0,0,0.06172839506172839,0,0)" xlink:href="#ag"/><use transform="matrix(0.06172839506172839,0,0,0.06172839506172839,8.641975308641975,0)" xlink:href="#aQ"/><use transform="matrix(0.06172839506172839,0,0,0.06172839506172839,14.814814814814813,0)" xlink:href="#aF"/><use transform="matrix(0.06172839506172839,0,0,0.06172839506172839,19.691358024691354,0)" xlink:href="#ai"/><use transform="matrix(0.06172839506172839,0,0,0.06172839506172839,32.03703703703703,0)" xlink:href="#aI"/><use transform="matrix(0.06172839506172839,0,0,0.06172839506172839,36.913580246913575,0)" xlink:href="#aG"/><use transform="matrix(0.06172839506172839,0,0,0.06172839506172839,49.25925925925925,0)" xlink:href="#am"/></g><path fill="#0c7cba" d="M115-3C79 11 28 4 28-45v-112H4v-33h27l15-45h31v45h36v33H77v99c-1 23 16 31 38 25v30" id="aT"/><g id="u"><use transform="matrix(0.06172839506172839,0,0,0.06172839506172839,0,0)" xlink:href="#Z"/><use transform="matrix(0.06172839506172839,0,0,0.06172839506172839,6.172839506172839,0)" xlink:href="#al"/><use transform="matrix(0.06172839506172839,0,0,0.06172839506172839,19.691358024691358,0)" xlink:href="#aT"/></g><path d="M100-194c62-1 85 37 85 99 1 63-27 99-86 99S16-35 15-95c0-66 28-99 85-99zM99-20c44 1 53-31 53-75 0-43-8-75-51-75s-53 32-53 75 10 74 51 75" id="aU"/><g id="v"><use transform="matrix(0.06172839506172839,0,0,0.06172839506172839,0,0)" xlink:href="#aQ"/><use transform="matrix(0.06172839506172839,0,0,0.06172839506172839,6.172839506172839,0)" xlink:href="#aF"/><use transform="matrix(0.06172839506172839,0,0,0.06172839506172839,11.049382716049383,0)" xlink:href="#ai"/><use transform="matrix(0.06172839506172839,0,0,0.06172839506172839,23.395061728395063,0)" xlink:href="#aI"/><use transform="matrix(0.06172839506172839,0,0,0.06172839506172839,28.271604938271608,0)" xlink:href="#aG"/><use transform="matrix(0.06172839506172839,0,0,0.06172839506172839,40.617283950617285,0)" xlink:href="#aR"/><use transform="matrix(0.06172839506172839,0,0,0.06172839506172839,56.60493827160494,0)" xlink:href="#aU"/><use transform="matrix(0.06172839506172839,0,0,0.06172839506172839,68.95061728395062,0)" xlink:href="#aK"/><use transform="matrix(0.06172839506172839,0,0,0.06172839506172839,81.2962962962963,0)" xlink:href="#ah"/><use transform="matrix(0.06172839506172839,0,0,0.06172839506172839,93.64197530864199,0)" xlink:href="#ak"/></g><path fill="#fff" d="M182-130c37 4 62 22 62 59C244 23 116-4 24 0v-248c84 5 203-23 205 63 0 31-19 50-47 55zM76-148c40-3 101 13 101-30 0-44-60-28-101-31v61zm0 110c48-3 116 14 116-37 0-48-69-32-116-35v72" id="aV"/><use transform="matrix(0.06172839506172839,0,0,0.06172839506172839,0,0)" xlink:href="#aV" id="w"/><path fill="#fff" d="M182-130c37 4 62 22 62 59C244 23 116-4 24 0v-248c84 5 203-23 205 63 0 31-19 50-47 55zM76-148c40-3 101 13 101-30 0-44-60-28-101-31v61zm0 110c48-3 116 14 116-37 0-48-69-32-116-35v72" id="aW"/><use transform="matrix(0.06172839506172839,0,0,0.06172839506172839,0,0)" xlink:href="#aW" id="x"/><path fill="#333" d="M109-170H84l-4-78h32zm-65 0H19l-4-78h33" id="aX"/><path fill="#333" d="M206 0h-36l-40-164L89 0H53L-1-190h32L70-26l43-164h34l41 164 42-164h31" id="aY"/><path fill="#333" d="M33 0v-38h34V0H33" id="aZ"/><path fill="#333" d="M100-194c63 0 86 42 84 106H49c0 40 14 67 53 68 26 1 43-12 49-29l28 8c-11 28-37 45-77 45C44 4 14-33 15-96c1-61 26-98 85-98zm52 81c6-60-76-77-97-28-3 7-6 17-6 28h103" id="ba"/><path fill="#333" d="M115-194c53 0 69 39 70 98 0 66-23 100-70 100C84 3 66-7 56-30L54 0H23l1-261h32v101c10-23 28-34 59-34zm-8 174c40 0 45-34 45-75 0-40-5-75-45-74-42 0-51 32-51 76 0 43 10 73 51 73" id="bb"/><path fill="#333" d="M141-36C126-15 110 5 73 4 37 3 15-17 15-53c-1-64 63-63 125-63 3-35-9-54-41-54-24 1-41 7-42 31l-33-3c5-37 33-52 76-52 45 0 72 20 72 64v82c-1 20 7 32 28 27v20c-31 9-61-2-59-35zM48-53c0 20 12 33 32 33 41-3 63-29 60-74-43 2-92-5-92 41" id="bc"/><path fill="#333" d="M179-190L93 31C79 59 56 82 12 73V49c39 6 53-20 64-50L1-190h34L92-34l54-156h33" id="bd"/><path fill="#333" d="M96-169c-40 0-48 33-48 73s9 75 48 75c24 0 41-14 43-38l32 2c-6 37-31 61-74 61-59 0-76-41-82-99-10-93 101-131 147-64 4 7 5 14 7 22l-32 3c-4-21-16-35-41-35" id="be"/><path fill="#333" d="M100-194c62-1 85 37 85 99 1 63-27 99-86 99S16-35 15-95c0-66 28-99 85-99zM99-20c44 1 53-31 53-75 0-43-8-75-51-75s-53 32-53 75 10 74 51 75" id="bf"/><path fill="#333" d="M210-169c-67 3-38 105-44 169h-31v-121c0-29-5-50-35-48C34-165 62-65 56 0H25l-1-190h30c1 10-1 24 2 32 10-44 99-50 107 0 11-21 27-35 58-36 85-2 47 119 55 194h-31v-121c0-29-5-49-35-48" id="bg"/><path fill="#333" d="M0 4l72-265h28L28 4H0" id="bh"/><path fill="#333" d="M155-56V0h-30v-56H8v-25l114-167h33v167h35v25h-35zm-30-156c-27 46-58 90-88 131h88v-131" id="bi"/><path fill="#333" d="M126-127c33 6 58 20 58 59 0 88-139 92-164 29-3-8-5-16-6-25l32-3c6 27 21 44 54 44 32 0 52-15 52-46 0-38-36-46-79-43v-28c39 1 72-4 72-42 0-27-17-43-46-43-28 0-47 15-49 41l-32-3c6-42 35-63 81-64 48-1 79 21 79 65 0 36-21 52-52 59" id="bj"/><path fill="#333" d="M27 0v-27h64v-190l-56 39v-29l58-41h29v221h61V0H27" id="bk"/><g id="y"><use transform="matrix(0.06172839506172839,0,0,0.06172839506172839,0,0)" xlink:href="#aX"/><use transform="matrix(0.06172839506172839,0,0,0.06172839506172839,7.8395061728395055,0)" xlink:href="#aY"/><use transform="matrix(0.06172839506172839,0,0,0.06172839506172839,23.827160493827158,0)" xlink:href="#aY"/><use transform="matrix(0.06172839506172839,0,0,0.06172839506172839,39.81481481481481,0)" xlink:href="#aY"/><use transform="matrix(0.06172839506172839,0,0,0.06172839506172839,54.56790123456789,0)" xlink:href="#aZ"/><use transform="matrix(0.06172839506172839,0,0,0.06172839506172839,60.74074074074073,0)" xlink:href="#ba"/><use transform="matrix(0.06172839506172839,0,0,0.06172839506172839,73.08641975308642,0)" xlink:href="#bb"/><use transform="matrix(0.06172839506172839,0,0,0.06172839506172839,85.4320987654321,0)" xlink:href="#bc"/><use transform="matrix(0.06172839506172839,0,0,0.06172839506172839,97.77777777777779,0)" xlink:href="#bd"/><use transform="matrix(0.06172839506172839,0,0,0.06172839506172839,107.22222222222223,0)" xlink:href="#aZ"/><use transform="matrix(0.06172839506172839,0,0,0.06172839506172839,113.39506172839506,0)" xlink:href="#be"/><use transform="matrix(0.06172839506172839,0,0,0.06172839506172839,124.50617283950618,0)" xlink:href="#bf"/><use transform="matrix(0.06172839506172839,0,0,0.06172839506172839,136.85185185185185,0)" xlink:href="#bg"/><use transform="matrix(0.06172839506172839,0,0,0.06172839506172839,155.30864197530863,0)" xlink:href="#bh"/><use transform="matrix(0.06172839506172839,0,0,0.06172839506172839,161.48148148148147,0)" xlink:href="#bi"/><use transform="matrix(0.06172839506172839,0,0,0.06172839506172839,173.82716049382714,0)" xlink:href="#bj"/><use transform="matrix(0.06172839506172839,0,0,0.06172839506172839,186.1728395061728,0)" xlink:href="#bk"/><use transform="matrix(0.06172839506172839,0,0,0.06172839506172839,198.51851851851848,0)" xlink:href="#bj"/><use transform="matrix(0.06172839506172839,0,0,0.06172839506172839,210.86419753086415,0)" xlink:href="#bi"/><use transform="matrix(0.06172839506172839,0,0,0.06172839506172839,223.20987654320982,0)" xlink:href="#aX"/></g><path fill="#fff" d="M121-226c-27-7-43 5-38 36h38v33H83V0H34v-157H6v-33h28c-9-59 32-81 87-68v32" id="bl"/><path fill="#fff" d="M25-224v-37h50v37H25zM25 0v-190h50V0H25" id="bm"/><path fill="#fff" d="M25 0v-261h50V0H25" id="bn"/><path fill="#fff" d="M88-194c31-1 46 15 58 34l-1-101h50l1 261h-48c-2-10 0-23-3-31C134-8 116 4 84 4 32 4 16-41 15-95c0-56 19-97 73-99zm17 164c33 0 40-30 41-66 1-37-9-64-41-64s-38 30-39 65c0 43 13 65 39 65" id="bo"/><path fill="#fff" d="M20 75v-336h95v34H67V41h48v34H20" id="bp"/><path fill="#fff" d="M101-251c68 0 84 54 84 127C185-50 166 4 99 4S15-52 14-124c-1-75 17-127 87-127zm-1 216c37-5 36-46 36-89s4-89-36-89c-39 0-36 45-36 89 0 43-3 85 36 89" id="bq"/><path fill="#fff" d="M24 0v-54h51V0H24" id="br"/><path fill="#fff" d="M67-125c0 53 21 87 73 88 37 1 54-22 65-47l45 17C233-25 199 4 140 4 58 4 20-42 15-125 8-235 124-281 211-232c18 10 29 29 36 50l-46 12c-8-25-30-41-62-41-52 0-71 34-72 86" id="bs"/><path fill="#fff" d="M110-194c64 0 96 36 96 99 0 64-35 99-97 99-61 0-95-36-95-99 0-62 34-99 96-99zm-1 164c35 0 45-28 45-65 0-40-10-65-43-65-34 0-45 26-45 65 0 36 10 65 43 65" id="bt"/><path fill="#fff" d="M85 4C-2 5 27-109 22-190h50c7 57-23 150 33 157 60-5 35-97 40-157h50l1 190h-47c-2-12 1-28-3-38-12 25-28 42-61 42" id="bu"/><path fill="#fff" d="M135-194c87-1 58 113 63 194h-50c-7-57 23-157-34-157-59 0-34 97-39 157H25l-1-190h47c2 12-1 28 3 38 12-26 28-41 61-42" id="bv"/><path fill="#fff" d="M115-3C79 11 28 4 28-45v-112H4v-33h27l15-45h31v45h36v33H77v99c-1 23 16 31 38 25v30" id="bw"/><g id="z"><use transform="matrix(0.06172839506172839,0,0,0.06172839506172839,0,0)" xlink:href="#bl"/><use transform="matrix(0.06172839506172839,0,0,0.06172839506172839,7.345679012345679,0)" xlink:href="#bm"/><use transform="matrix(0.06172839506172839,0,0,0.06172839506172839,13.518518518518519,0)" xlink:href="#az"/><use transform="matrix(0.06172839506172839,0,0,0.06172839506172839,25.864197530864196,0)" xlink:href="#bn"/><use transform="matrix(0.06172839506172839,0,0,0.06172839506172839,32.03703703703704,0)" xlink:href="#bo"/><use transform="matrix(0.06172839506172839,0,0,0.06172839506172839,45.55555555555556,0)" xlink:href="#ax"/><use transform="matrix(0.06172839506172839,0,0,0.06172839506172839,57.901234567901234,0)" xlink:href="#bp"/><use transform="matrix(0.06172839506172839,0,0,0.06172839506172839,65.24691358024691,0)" xlink:href="#bq"/><use transform="matrix(0.06172839506172839,0,0,0.06172839506172839,77.5925925925926,0)" xlink:href="#br"/><use transform="matrix(0.06172839506172839,0,0,0.06172839506172839,83.76543209876543,0)" xlink:href="#br"/><use transform="matrix(0.06172839506172839,0,0,0.06172839506172839,89.93827160493827,0)" xlink:href="#br"/><use transform="matrix(0.06172839506172839,0,0,0.06172839506172839,96.1111111111111,0)" xlink:href="#bl"/><use transform="matrix(0.06172839506172839,0,0,0.06172839506172839,103.45679012345678,0)" xlink:href="#bm"/><use transform="matrix(0.06172839506172839,0,0,0.06172839506172839,109.62962962962962,0)" xlink:href="#az"/><use transform="matrix(0.06172839506172839,0,0,0.06172839506172839,121.9753086419753,0)" xlink:href="#bn"/><use transform="matrix(0.06172839506172839,0,0,0.06172839506172839,128.14814814814815,0)" xlink:href="#bo"/><use transform="matrix(0.06172839506172839,0,0,0.06172839506172839,141.66666666666666,0)" xlink:href="#bs"/><use transform="matrix(0.06172839506172839,0,0,0.06172839506172839,157.6543209876543,0)" xlink:href="#bt"/><use transform="matrix(0.06172839506172839,0,0,0.06172839506172839,171.1728395061728,0)" xlink:href="#bu"/><use transform="matrix(0.06172839506172839,0,0,0.06172839506172839,184.6913580246913,0)" xlink:href="#bv"/><use transform="matrix(0.06172839506172839,0,0,0.06172839506172839,198.20987654320982,0)" xlink:href="#bw"/></g><path fill="#fff" d="M14-72v-43h91v43H14" id="bx"/><use transform="matrix(0.06172839506172839,0,0,0.06172839506172839,0,0)" xlink:href="#bx" id="A"/><path fill="#fff" d="M23 0v-37h61v-169l-59 37v-38l62-41h46v211h57V0H23" id="by"/><path fill="#fff" d="M4 75V41h49v-268H4v-34h96V75H4" id="bz"/><g id="B"><use transform="matrix(0.06172839506172839,0,0,0.06172839506172839,0,0)" xlink:href="#by"/><use transform="matrix(0.06172839506172839,0,0,0.06172839506172839,12.345679012345679,0)" xlink:href="#bz"/></g><path d="M114-163C36-179 61-72 57 0H25l-1-190h30c1 12-1 29 2 39 6-27 23-49 58-41v29" id="bA"/><path d="M179-190L93 31C79 59 56 82 12 73V49c39 6 53-20 64-50L1-190h34L92-34l54-156h33" id="bB"/><g id="C"><use transform="matrix(0.06172839506172839,0,0,0.06172839506172839,0,0)" xlink:href="#ag"/><use transform="matrix(0.06172839506172839,0,0,0.06172839506172839,8.641975308641975,0)" xlink:href="#an"/><use transform="matrix(0.06172839506172839,0,0,0.06172839506172839,20.98765432098765,0)" xlink:href="#bA"/><use transform="matrix(0.06172839506172839,0,0,0.06172839506172839,28.33333333333333,0)" xlink:href="#aU"/><use transform="matrix(0.06172839506172839,0,0,0.06172839506172839,40.679012345679006,0)" xlink:href="#an"/><use transform="matrix(0.06172839506172839,0,0,0.06172839506172839,53.02469135802468,0)" xlink:href="#ai"/><use transform="matrix(0.06172839506172839,0,0,0.06172839506172839,65.37037037037037,0)" xlink:href="#bA"/><use transform="matrix(0.06172839506172839,0,0,0.06172839506172839,72.71604938271605,0)" xlink:href="#ak"/><use transform="matrix(0.06172839506172839,0,0,0.06172839506172839,78.88888888888889,0)" xlink:href="#bB"/></g><path d="M108 0H70L1-190h34L89-25l56-165h34" id="bC"/><g id="D"><use transform="matrix(0.06172839506172839,0,0,0.06172839506172839,0,0)" xlink:href="#ag"/><use transform="matrix(0.06172839506172839,0,0,0.06172839506172839,8.641975308641975,0)" xlink:href="#ag"/><use transform="matrix(0.06172839506172839,0,0,0.06172839506172839,17.28395061728395,0)" xlink:href="#bC"/><use transform="matrix(0.06172839506172839,0,0,0.06172839506172839,28.39506172839506,0)" xlink:href="#aN"/><use transform="matrix(0.06172839506172839,0,0,0.06172839506172839,40.74074074074074,0)" xlink:href="#aI"/><use transform="matrix(0.06172839506172839,0,0,0.06172839506172839,45.617283950617285,0)" xlink:href="#aK"/><use transform="matrix(0.06172839506172839,0,0,0.06172839506172839,57.96296296296296,0)" xlink:href="#ai"/><use transform="matrix(0.06172839506172839,0,0,0.06172839506172839,70.30864197530865,0)" xlink:href="#am"/></g><g id="E"><use transform="matrix(0.06172839506172839,0,0,0.06172839506172839,0,0)" xlink:href="#ao"/><use transform="matrix(0.06172839506172839,0,0,0.06172839506172839,11.11111111111111,0)" xlink:href="#ah"/><use transform="matrix(0.06172839506172839,0,0,0.06172839506172839,23.45679012345679,0)" xlink:href="#ak"/></g><path fill="#333" d="M84 4C-5 8 30-112 23-190h32v120c0 31 7 50 39 49 72-2 45-101 50-169h31l1 190h-30c-1-10 1-25-2-33-11 22-28 36-60 37" id="bD"/><path fill="#333" d="M117-194c89-4 53 116 60 194h-32v-121c0-31-8-49-39-48C34-167 62-67 57 0H25l-1-190h30c1 10-1 24 2 32 11-22 29-35 61-36" id="bE"/><path fill="#333" d="M59-47c-2 24 18 29 38 22v24C64 9 27 4 27-40v-127H5v-23h24l9-43h21v43h35v23H59v120" id="bF"/><path fill="#333" d="M64 0c3-98 48-159 88-221H18v-27h164v26C143-157 98-101 97 0H64" id="bG"/><path fill="#333" d="M134-131c28 9 52 24 51 62-1 50-34 73-85 73S17-19 16-69c0-36 21-54 49-61-75-25-45-126 34-121 46 3 78 18 79 63 0 33-17 51-44 57zm-34-11c31 1 46-15 46-44 0-28-17-43-47-42-29 0-46 13-45 42 1 28 16 44 46 44zm1 122c35 0 51-18 51-52 0-30-18-46-53-46-33 0-51 17-51 47 0 34 19 51 53 51" id="bH"/><g id="F"><use transform="matrix(0.06172839506172839,0,0,0.06172839506172839,0,0)" xlink:href="#aX"/><use transform="matrix(0.06172839506172839,0,0,0.06172839506172839,7.8395061728395055,0)" xlink:href="#bb"/><use transform="matrix(0.06172839506172839,0,0,0.06172839506172839,20.185185185185183,0)" xlink:href="#bD"/><use transform="matrix(0.06172839506172839,0,0,0.06172839506172839,32.53086419753086,0)" xlink:href="#bd"/><use transform="matrix(0.06172839506172839,0,0,0.06172839506172839,41.9753086419753,0)" xlink:href="#aZ"/><use transform="matrix(0.06172839506172839,0,0,0.06172839506172839,48.148148148148145,0)" xlink:href="#bE"/><use transform="matrix(0.06172839506172839,0,0,0.06172839506172839,60.49382716049382,0)" xlink:href="#ba"/><use transform="matrix(0.06172839506172839,0,0,0.06172839506172839,72.8395061728395,0)" xlink:href="#bF"/><use transform="matrix(0.06172839506172839,0,0,0.06172839506172839,79.01234567901234,0)" xlink:href="#bh"/><use transform="matrix(0.06172839506172839,0,0,0.06172839506172839,85.18518518518518,0)" xlink:href="#bi"/><use transform="matrix(0.06172839506172839,0,0,0.06172839506172839,97.53086419753086,0)" xlink:href="#bG"/><use transform="matrix(0.06172839506172839,0,0,0.06172839506172839,109.87654320987654,0)" xlink:href="#bH"/><use transform="matrix(0.06172839506172839,0,0,0.06172839506172839,122.22222222222223,0)" xlink:href="#aX"/></g><path fill="#333" d="M140-251c81 0 123 46 123 126C263-46 219 4 140 4 59 4 17-45 17-125s42-126 123-126zm0 227c63 0 89-41 89-101s-29-99-89-99c-61 0-89 39-89 99S79-25 140-24" id="bI"/><path fill="#333" d="M185-189c-5-48-123-54-124 2 14 75 158 14 163 119 3 78-121 87-175 55-17-10-28-26-33-46l33-7c5 56 141 63 141-1 0-78-155-14-162-118-5-82 145-84 179-34 5 7 8 16 11 25" id="bJ"/><g id="G"><use transform="matrix(0.06172839506172839,0,0,0.06172839506172839,0,0)" xlink:href="#aX"/><use transform="matrix(0.06172839506172839,0,0,0.06172839506172839,7.8395061728395055,0)" xlink:href="#bI"/><use transform="matrix(0.06172839506172839,0,0,0.06172839506172839,25.123456790123456,0)" xlink:href="#bJ"/><use transform="matrix(0.06172839506172839,0,0,0.06172839506172839,39.938271604938265,0)" xlink:href="#aX"/></g><path d="M86-200l42-18 12 35-44 11 32 37-32 21-26-44-26 44-32-21 33-37-44-11 12-35 42 18-3-48h38" id="bK"/><path d="M128 0H69L1-190h53L99-40l48-150h52" id="bL"/><path d="M20 75v-336h95v34H67V41h48v34H20" id="bM"/><path d="M101-251c68 0 84 54 84 127C185-50 166 4 99 4S15-52 14-124c-1-75 17-127 87-127zm-1 216c37-5 36-46 36-89s4-89-36-89c-39 0-36 45-36 89 0 43-3 85 36 89" id="bN"/><path d="M24 0v-54h51V0H24" id="bO"/><path d="M135-194c87-1 58 113 63 194h-50c-7-57 23-157-34-157-59 0-34 97-39 157H25l-1-190h47c2 12-1 28 3 38 12-26 28-41 61-42" id="bP"/><g id="H"><use transform="matrix(0.06172839506172839,0,0,0.06172839506172839,0,0)" xlink:href="#bK"/><use transform="matrix(0.06172839506172839,0,0,0.06172839506172839,8.641975308641975,0)" xlink:href="#bL"/><use transform="matrix(0.06172839506172839,0,0,0.06172839506172839,20.98765432098765,0)" xlink:href="#ar"/><use transform="matrix(0.06172839506172839,0,0,0.06172839506172839,33.33333333333333,0)" xlink:href="#P"/><use transform="matrix(0.06172839506172839,0,0,0.06172839506172839,39.50617283950617,0)" xlink:href="#S"/><use transform="matrix(0.06172839506172839,0,0,0.06172839506172839,53.02469135802469,0)" xlink:href="#T"/><use transform="matrix(0.06172839506172839,0,0,0.06172839506172839,65.37037037037037,0)" xlink:href="#as"/><use transform="matrix(0.06172839506172839,0,0,0.06172839506172839,77.71604938271605,0)" xlink:href="#bM"/><use transform="matrix(0.06172839506172839,0,0,0.06172839506172839,85.06172839506173,0)" xlink:href="#bN"/><use transform="matrix(0.06172839506172839,0,0,0.06172839506172839,97.40740740740742,0)" xlink:href="#bO"/><use transform="matrix(0.06172839506172839,0,0,0.06172839506172839,103.58024691358025,0)" xlink:href="#bO"/><use transform="matrix(0.06172839506172839,0,0,0.06172839506172839,109.75308641975309,0)" xlink:href="#bO"/><use transform="matrix(0.06172839506172839,0,0,0.06172839506172839,115.92592592592592,0)" xlink:href="#O"/><use transform="matrix(0.06172839506172839,0,0,0.06172839506172839,128.2716049382716,0)" xlink:href="#bP"/><use transform="matrix(0.06172839506172839,0,0,0.06172839506172839,141.7901234567901,0)" xlink:href="#at"/></g><path d="M14-72v-43h91v43H14" id="bQ"/><use transform="matrix(0.06172839506172839,0,0,0.06172839506172839,0,0)" xlink:href="#bQ" id="I"/><path d="M23 0v-37h61v-169l-59 37v-38l62-41h46v211h57V0H23" id="bR"/><path d="M4 75V41h49v-268H4v-34h96V75H4" id="bS"/><g id="J"><use transform="matrix(0.06172839506172839,0,0,0.06172839506172839,0,0)" xlink:href="#bR"/><use transform="matrix(0.06172839506172839,0,0,0.06172839506172839,12.345679012345679,0)" xlink:href="#bS"/></g><g id="K"><use transform="matrix(0.06172839506172839,0,0,0.06172839506172839,0,0)" xlink:href="#X"/><use transform="matrix(0.06172839506172839,0,0,0.06172839506172839,12.345679012345679,0)" xlink:href="#aC"/><use transform="matrix(0.06172839506172839,0,0,0.06172839506172839,25.864197530864196,0)" xlink:href="#aD"/><use transform="matrix(0.06172839506172839,0,0,0.06172839506172839,38.20987654320987,0)" xlink:href="#aE"/></g><path fill="#333" d="M266 0h-40l-56-210L115 0H75L2-248h35L96-30l15-64 43-154h32l59 218 59-218h35" id="bT"/><path fill="#333" d="M24-231v-30h32v30H24zM24 0v-190h32V0H24" id="bU"/><path fill="#333" d="M85-194c31 0 48 13 60 33l-1-100h32l1 261h-30c-2-10 0-23-3-31C134-8 116 4 85 4 32 4 16-35 15-94c0-66 23-100 70-100zm9 24c-40 0-46 34-46 75 0 40 6 74 45 74 42 0 51-32 51-76 0-42-9-74-50-73" id="bV"/><path fill="#333" d="M135-143c-3-34-86-38-87 0 15 53 115 12 119 90S17 21 10-45l28-5c4 36 97 45 98 0-10-56-113-15-118-90-4-57 82-63 122-42 12 7 21 19 24 35" id="bW"/><g id="L"><use transform="matrix(0.06172839506172839,0,0,0.06172839506172839,0,0)" xlink:href="#aX"/><use transform="matrix(0.06172839506172839,0,0,0.06172839506172839,7.8395061728395055,0)" xlink:href="#bT"/><use transform="matrix(0.06172839506172839,0,0,0.06172839506172839,28.76543209876543,0)" xlink:href="#bU"/><use transform="matrix(0.06172839506172839,0,0,0.06172839506172839,33.641975308641975,0)" xlink:href="#bE"/><use transform="matrix(0.06172839506172839,0,0,0.06172839506172839,45.98765432098765,0)" xlink:href="#bV"/><use transform="matrix(0.06172839506172839,0,0,0.06172839506172839,58.33333333333333,0)" xlink:href="#bf"/><use transform="matrix(0.06172839506172839,0,0,0.06172839506172839,70.67901234567901,0)" xlink:href="#aY"/><use transform="matrix(0.06172839506172839,0,0,0.06172839506172839,86.66666666666667,0)" xlink:href="#bW"/><use transform="matrix(0.06172839506172839,0,0,0.06172839506172839,97.77777777777779,0)" xlink:href="#aX"/></g><path fill="#333" d="M30 0v-248h33v221h125V0H30" id="bX"/><path fill="#333" d="M141 0L90-78 38 0H4l68-98-65-92h35l48 74 47-74h35l-64 92 68 98h-35" id="bY"/><g id="M"><use transform="matrix(0.06172839506172839,0,0,0.06172839506172839,0,0)" xlink:href="#aX"/><use transform="matrix(0.06172839506172839,0,0,0.06172839506172839,7.8395061728395055,0)" xlink:href="#bX"/><use transform="matrix(0.06172839506172839,0,0,0.06172839506172839,20.185185185185183,0)" xlink:href="#bU"/><use transform="matrix(0.06172839506172839,0,0,0.06172839506172839,25.061728395061728,0)" xlink:href="#bE"/><use transform="matrix(0.06172839506172839,0,0,0.06172839506172839,37.407407407407405,0)" xlink:href="#bD"/><use transform="matrix(0.06172839506172839,0,0,0.06172839506172839,49.75308641975308,0)" xlink:href="#bY"/><use transform="matrix(0.06172839506172839,0,0,0.06172839506172839,60.86419753086419,0)" xlink:href="#aX"/></g><use transform="matrix(0.06172839506172839,0,0,0.06172839506172839,0,0)" xlink:href="#bs" id="N"/></defs></g></svg>